<svg width="15" height="13" viewBox="0 0 15 13" fill="none" xmlns="http://www.w3.org/2000/svg">
<path d="M12.6235 1.9236C12.3303 1.63025 11.9822 1.39755 11.599 1.23878C11.2158 1.08001 10.8051 0.998291 10.3904 0.998291C9.97559 0.998291 9.56489 1.08001 9.18172 1.23878C8.79855 1.39755 8.45041 1.63025 8.1572 1.9236L7.54867 2.53213L6.94015 1.9236C6.34788 1.33133 5.54459 0.998598 4.70699 0.998598C3.8694 0.998598 3.0661 1.33133 2.47383 1.9236C1.88156 2.51587 1.54883 3.31917 1.54883 4.15676C1.54883 4.99436 1.88156 5.79765 2.47383 6.38992L3.08235 6.99844L7.54867 11.4648L12.015 6.99844L12.6235 6.38992C12.9169 6.09671 13.1496 5.74857 13.3083 5.3654C13.4671 4.98223 13.5488 4.57153 13.5488 4.15676C13.5488 3.742 13.4671 3.3313 13.3083 2.94813C13.1496 2.56495 12.9169 2.21682 12.6235 1.9236V1.9236Z" stroke="#4E4E4E" stroke-width="1.5" stroke-linecap="round" stroke-linejoin="round"/>
</svg>
