<svg width="247" height="46" viewBox="0 0 247 46" fill="none" xmlns="http://www.w3.org/2000/svg">
<path d="M21.4077 12.6992C20.5046 12.7001 19.6128 12.9032 18.7961 13.2941C17.9794 13.685 17.2579 14.2539 16.6833 14.9603C15.9756 15.7925 15.3591 16.7 14.8447 17.6671L20.0167 0C18.0955 0.623404 16.1317 1.10286 14.1412 1.43445C11.8321 1.7978 9.49932 1.98473 7.16256 1.99364L6.82678 3.01473C8.38559 3.01473 9.36887 3.27406 9.75258 3.82514C10.1363 4.37623 10.1683 5.15423 9.8485 6.25639L1.0552 36.2418C0.932126 36.7448 0.779973 37.24 0.599543 37.7249C0.42287 38.1968 0.222767 38.6593 0 39.1107L0.719471 39.4511C2.05445 38.9485 3.42542 38.5503 4.82035 38.2598C6.11087 37.9596 7.45313 37.9735 8.73733 38.3003C9.16173 38.5775 9.61815 38.8007 10.0963 38.9648C10.8682 39.2314 11.6791 39.3629 12.4945 39.3538C14.3593 39.3801 16.2052 38.9726 17.8904 38.1625C19.4981 37.3705 20.9522 36.2917 22.1831 34.9776C23.443 33.6483 24.5187 32.1515 25.3807 30.5284C26.2211 28.9398 26.8808 27.2596 27.3472 25.52C27.7798 23.9359 28.0055 22.3011 28.0186 20.6575C28.0186 18.129 27.4857 16.1759 26.4199 14.7982C25.3007 13.3881 23.638 12.6992 21.4077 12.6992ZM18.5778 23.7128C18.2601 25.4392 17.8111 27.138 17.2349 28.7941C16.7037 30.3462 16.046 31.8506 15.2684 33.2919C14.6415 34.4932 13.8322 35.5871 12.8702 36.5336C12.1971 37.2495 11.2785 37.6759 10.3042 37.7249C10.0135 37.7283 9.7236 37.6956 9.4408 37.6276C9.30762 37.593 9.17679 37.5497 9.04911 37.498L13.9574 20.6656C14.1732 20.1875 14.389 19.7255 14.6208 19.296C15.0588 18.4119 15.6157 17.5936 16.2756 16.8648C16.4711 16.6183 16.7133 16.4139 16.9879 16.2636C17.2624 16.1133 17.5638 16.0201 17.8744 15.9895C18.0539 15.9843 18.2311 16.0321 18.3843 16.1271C18.5376 16.222 18.6604 16.3601 18.7377 16.5244C18.9854 17.2417 19.0834 18.0034 19.0255 18.7612C19.0221 20.4219 18.8723 22.0791 18.5778 23.7128V23.7128Z" fill="black"/>
<path d="M56.421 12.6992C55.11 12.9261 53.7777 13.0963 52.424 13.2098C51.0571 13.3233 49.5062 13.3962 47.7476 13.4286L47.148 15.4466C47.1287 14.8033 46.9106 14.1825 46.5245 13.6717C46.2219 13.3382 45.8494 13.0777 45.4344 12.9094C45.0194 12.7411 44.5724 12.6693 44.1264 12.6992C42.6557 12.7353 41.2188 13.1539 39.9535 13.9149C38.4208 14.799 37.0232 15.9047 35.8047 17.197C34.4467 18.6199 33.2483 20.1909 32.2314 21.8813C31.1692 23.6283 30.3159 25.4973 29.6894 27.4488C29.0811 29.2994 28.7654 31.236 28.7541 33.1866C28.6484 34.8214 29.1728 36.434 30.2169 37.6844C31.1922 38.7649 32.6871 39.3052 34.7016 39.3052C36.3245 39.3282 37.9123 38.8257 39.2341 37.8708C40.538 36.7914 41.5021 35.3491 42.008 33.7214C41.9677 34.1226 41.9544 34.526 41.968 34.929C41.9706 35.8805 42.2485 36.8104 42.7674 37.6034C43.5988 38.738 44.9897 39.3052 46.9402 39.3052C48.2843 39.2893 49.6062 38.9563 50.8013 38.3327C52.0963 37.6844 53.0955 36.3337 53.799 34.2806L54.9981 30.731H54.0868L53.0795 33.454C52.8108 34.4105 52.3171 35.2865 51.6407 36.0068C51.3317 36.2852 50.9474 36.4631 50.5375 36.5174C50.3399 36.5258 50.1454 36.4657 49.9859 36.3472C49.9033 36.2656 49.8391 36.1669 49.7977 36.0578C49.7563 35.9487 49.7387 35.8317 49.7461 35.7151C49.7486 35.2924 49.8216 34.8732 49.9619 34.4751L56.421 12.6992ZM39.8736 35.6016C39.5866 35.8354 39.2341 35.9715 38.8664 35.9906C38.6765 35.9997 38.489 35.9452 38.3329 35.8353C38.1768 35.7254 38.0609 35.5663 38.003 35.3828C37.8112 34.7454 37.73 34.079 37.7632 33.4135C37.7648 31.1964 38.0551 28.9892 38.6265 26.8491C39.1521 24.8158 39.8667 22.8376 40.7609 20.9412C41.4576 19.4147 42.3442 17.9849 43.3989 16.6865C44.3102 15.606 45.1096 15.0657 45.7971 15.0657C45.9724 15.057 46.1457 15.107 46.2901 15.2081C46.4346 15.3091 46.5422 15.4556 46.5965 15.6249C46.7318 16.1372 46.7318 16.6766 46.5965 17.189L43.1111 28.9643C42.7914 29.9692 42.4876 30.8607 42.1998 31.5982C41.8562 32.5145 41.4391 33.4009 40.9528 34.2482C40.6796 34.7637 40.3136 35.2228 39.8736 35.6016V35.6016Z" fill="black"/>
<path d="M81.1141 14.0607C80.6713 13.5922 80.1327 13.2276 79.5361 12.9924C78.9395 12.7572 78.2995 12.6571 77.6608 12.6992C76.4866 12.672 75.3268 12.966 74.3033 13.5501C73.1856 14.2907 72.2766 15.3128 71.6653 16.5163C71.3366 17.1028 71.0377 17.7059 70.77 18.3235C70.842 17.6745 70.842 17.0194 70.77 16.3704C70.6885 15.3841 70.2733 14.4565 69.5949 13.7447C69.1577 13.363 68.6495 13.0738 68.1003 12.8943C67.5512 12.7148 66.9722 12.6484 66.3973 12.6992C64.8736 12.6622 63.3701 13.058 62.0567 13.8419C60.7071 14.7612 59.715 16.1279 59.2508 17.7076L57.9158 21.5004H58.8191L59.9223 18.5342C60.2043 17.6506 60.6432 16.8267 61.2173 16.103C61.3839 15.9049 61.5893 15.7443 61.8206 15.6312C62.0518 15.5182 62.3037 15.4553 62.5603 15.4465C62.7032 15.4255 62.8485 15.4621 62.9651 15.5484C63.0817 15.6348 63.1602 15.7641 63.1838 15.9085C63.2308 16.4564 63.1655 17.0082 62.9919 17.5293L57.1404 38.6002H65.63L69.1632 24.9446C69.7749 23.0077 70.5092 21.1128 71.3616 19.2717C71.9734 17.8878 72.7813 16.6019 73.7597 15.4547C74.3378 14.7762 75.0824 14.2646 75.9181 13.9716C76.5495 13.7854 77.2031 13.6872 77.8606 13.6798C77.9822 13.679 78.1033 13.6953 78.2204 13.7285L78.5401 13.8257C77.11 14.0942 75.813 14.8489 74.8629 15.9652C73.8746 17.0133 73.3197 18.4053 73.3121 19.8552C73.2461 20.3499 73.2936 20.8533 73.4511 21.3263C73.6085 21.7992 73.8716 22.2289 74.2198 22.5819C74.568 22.9348 74.9918 23.2015 75.4583 23.3611C75.9248 23.5207 76.4214 23.569 76.9093 23.5021C77.6539 23.5215 78.3929 23.3672 79.0693 23.051C79.7457 22.7349 80.3414 22.2653 80.8104 21.6786C81.8071 20.4936 82.3441 18.9812 82.3212 17.424C82.3552 16.1881 81.9236 14.9854 81.1141 14.0607V14.0607Z" fill="black"/>
<path d="M106.247 17.4158C106.281 16.1838 105.853 14.9846 105.048 14.0607C104.605 13.5922 104.066 13.2276 103.47 12.9924C102.873 12.7572 102.233 12.6571 101.594 12.6992C100.42 12.672 99.2605 12.9659 98.237 13.5501C97.1193 14.2907 96.2104 15.3128 95.5991 16.5163C95.2703 17.1027 94.9714 17.7059 94.7037 18.3235C94.7757 17.6745 94.7757 17.0194 94.7037 16.3704C94.6222 15.384 94.2071 14.4565 93.5286 13.7447C93.0911 13.3634 92.5829 13.0744 92.0339 12.8949C91.4848 12.7154 90.9058 12.6488 90.3311 12.6992C88.8073 12.6621 87.3038 13.058 85.9904 13.8419C84.6408 14.7612 83.6488 16.1278 83.1845 17.7076L81.8415 21.5004H82.7528L83.856 18.5342C84.1381 17.6506 84.5769 16.8267 85.151 16.103C85.3176 15.9049 85.523 15.7442 85.7542 15.6312C85.9855 15.5182 86.2374 15.4553 86.494 15.4465C86.6366 15.4276 86.7809 15.465 86.897 15.551C87.013 15.637 87.092 15.765 87.1175 15.9085C87.1645 16.4564 87.0992 17.0082 86.9256 17.5293L81.0741 38.6001H89.5636L93.097 24.9446C93.7086 23.0077 94.4429 21.1128 95.2953 19.2717C95.9071 17.8878 96.715 16.6018 97.6935 15.4546C98.2715 14.7762 99.0161 14.2646 99.8518 13.9716C100.483 13.7853 101.137 13.6872 101.794 13.6798C101.916 13.6789 102.037 13.6953 102.154 13.7284L102.466 13.8257C101.039 14.0959 99.7447 14.8505 98.7966 15.9652C97.7908 17.0056 97.2183 18.3985 97.1978 19.8552C97.1319 20.3498 97.1794 20.8533 97.3368 21.3262C97.4943 21.7992 97.7573 22.2289 98.1055 22.5818C98.4537 22.9348 98.8775 23.2015 99.3441 23.3611C99.8106 23.5207 100.307 23.569 100.795 23.5021C101.541 23.5221 102.281 23.3681 102.959 23.0519C103.637 22.7358 104.234 22.2659 104.704 21.6786C105.714 20.4961 106.263 18.98 106.247 17.4158V17.4158Z" fill="black"/>
<path d="M121.356 12.6992C118.763 12.6308 116.196 13.2333 113.897 14.4497C111.86 15.5672 110.084 17.1181 108.693 18.9962C107.349 20.7993 106.319 22.822 105.648 24.977C105.019 26.9327 104.687 28.974 104.664 31.0308C104.664 33.689 105.392 35.7313 106.847 37.1576C108.302 38.5839 110.42 39.2971 113.202 39.2971C115.794 39.3655 118.361 38.7631 120.66 37.5466C122.698 36.4292 124.473 34.8782 125.864 33.0001C127.208 31.197 128.238 29.1743 128.91 27.0193C129.539 25.0637 129.87 23.0223 129.893 20.9655C129.893 18.3073 129.166 16.2651 127.711 14.8387C126.256 13.4124 124.137 12.6992 121.356 12.6992ZM121.308 22.4972C120.909 24.5014 120.375 26.4754 119.709 28.4051C119.116 30.136 118.411 31.8253 117.598 33.4621C116.992 34.7228 116.252 35.913 115.392 37.0117C114.673 37.887 114.057 38.3246 113.546 38.3246C113.226 38.3246 112.994 38.122 112.85 37.7168C112.673 37.0269 112.6 36.3137 112.634 35.6016C112.646 33.6736 112.847 31.7515 113.234 29.8638C113.635 27.8682 114.169 25.9025 114.833 23.9803C115.433 22.2013 116.146 20.4633 116.967 18.7773C117.588 17.4607 118.343 16.214 119.221 15.0576C119.957 14.1337 120.596 13.6717 121.14 13.6717C121.364 13.6717 121.555 13.8338 121.715 14.158C121.931 14.9155 122.012 15.7057 121.955 16.492C121.94 18.5107 121.723 20.5227 121.308 22.4972Z" fill="black"/>
<path d="M158.535 20.0416C158.956 18.849 159.16 17.5884 159.135 16.3218C159.134 15.8211 159.029 15.3261 158.827 14.8693C158.624 14.4126 158.329 14.0044 157.96 13.6718C156.943 12.9372 155.702 12.5926 154.458 12.6992C153.228 12.6889 152.009 12.9459 150.885 13.4529C149.611 14.1078 148.513 15.0674 147.687 16.2489C146.41 18.041 145.338 19.974 144.49 22.0109C144.13 22.8213 143.746 23.7453 143.355 24.734L144.706 19.5068C144.992 18.4881 145.073 17.4216 144.945 16.3705C144.84 15.3604 144.37 14.4255 143.626 13.7447C142.875 13.0478 141.652 12.6992 139.957 12.6992C138.503 12.6355 137.069 13.0631 135.88 13.9149C134.703 14.9062 133.836 16.2243 133.386 17.7076L132.043 21.5004H132.955L134.058 18.5343C134.34 17.6507 134.779 16.8267 135.353 16.103C135.519 15.905 135.725 15.7443 135.956 15.6313C136.187 15.5182 136.439 15.4553 136.696 15.4466C136.803 15.4362 136.912 15.4481 137.015 15.4815C137.118 15.5149 137.214 15.5692 137.295 15.6411C137.357 15.7325 137.399 15.8358 137.42 15.9445C137.44 16.0532 137.439 16.1651 137.415 16.2732C137.355 16.6863 137.259 17.0932 137.127 17.4888L131.276 38.5597H139.765L139.829 38.3084V38.4138C140.533 35.7124 141.356 33.0299 142.299 30.3663C143.243 27.7027 144.218 25.2553 145.225 23.0239C146.038 21.159 147.008 19.3694 148.127 17.6752C149.054 16.3299 149.838 15.6573 150.477 15.6573C150.571 15.6475 150.666 15.6713 150.745 15.7246C150.823 15.7778 150.882 15.8571 150.909 15.949C150.969 16.2376 150.969 16.5357 150.909 16.8243C150.835 17.321 150.715 17.8095 150.549 18.283L146.424 30.8769C145.948 32.174 145.696 33.5449 145.681 34.929C145.696 35.8407 145.974 36.7281 146.48 37.4818C147.312 38.6488 148.75 39.2323 150.797 39.2323C152.141 39.2164 153.463 38.8835 154.658 38.2598C155.953 37.6115 156.952 36.2608 157.656 34.2077L158.855 30.6581H157.944L156.936 33.3811C156.668 34.3376 156.174 35.2136 155.497 35.9339C155.189 36.2136 154.804 36.3916 154.394 36.4444C154.128 36.425 153.879 36.3032 153.699 36.1041C153.459 35.8772 153.499 35.3099 153.819 34.4022L158.535 20.0416Z" fill="black"/>
<path d="M180.854 14.863C179.978 14.0358 178.903 13.4572 177.737 13.1855C176.459 12.8595 175.145 12.6961 173.828 12.6992C170.63 12.6992 168.232 13.4043 166.633 14.8144C165.874 15.4492 165.265 16.248 164.85 17.1525C164.435 18.057 164.225 19.0441 164.235 20.0416C164.219 21.3344 164.515 22.6115 165.098 23.7614C165.674 24.8798 166.345 26.0711 167.113 27.3353C167.881 28.5444 168.554 29.8126 169.127 31.1281C169.625 32.2109 169.897 33.3862 169.927 34.5805C169.95 35.0755 169.873 35.5702 169.701 36.0341C169.529 36.4981 169.266 36.9218 168.927 37.2792C168.604 37.6074 168.219 37.8652 167.794 38.0366C167.369 38.2081 166.914 38.2895 166.457 38.276C166.16 38.2778 165.863 38.2534 165.57 38.203C165.292 38.154 165.023 38.0639 164.77 37.9356C164.994 37.4493 165.274 36.7686 165.61 35.8933C165.953 34.9773 166.124 34.0042 166.113 33.0245C166.169 31.9194 165.865 30.8263 165.25 29.9124C164.997 29.5456 164.66 29.2473 164.267 29.0439C163.873 28.8404 163.437 28.7379 162.996 28.7454C162.523 28.7313 162.054 28.8401 161.634 29.0614C161.215 29.2827 160.858 29.6092 160.598 30.0097C159.989 30.9097 159.678 31.9824 159.71 33.0731C159.633 34.4418 160.09 35.7864 160.981 36.8172C161.886 37.7586 163.032 38.424 164.291 38.7379C165.691 39.1162 167.134 39.3042 168.583 39.2971C170.4 39.3546 172.208 39.0146 173.883 38.3003C175.174 37.7389 176.282 36.8205 177.081 35.6502C177.793 34.5715 178.169 33.3011 178.16 32.0033C178.15 30.8462 177.93 29.7008 177.513 28.6239C176.888 27.0827 176.142 25.5949 175.282 24.1747L173.34 20.8196C172.744 19.8474 172.436 18.7223 172.453 17.5779C172.414 16.5615 172.728 15.5635 173.34 14.7577C173.665 14.4196 174.058 14.1573 174.493 13.9894C174.928 13.8214 175.394 13.7517 175.858 13.7852C176.267 13.761 176.676 13.8274 177.057 13.9797C176.618 14.5176 176.269 15.1255 176.026 15.7788C175.677 16.6592 175.506 17.6017 175.522 18.5504C175.47 19.5926 175.751 20.624 176.322 21.4923C176.573 21.8588 176.911 22.1555 177.305 22.3552C177.699 22.5548 178.136 22.651 178.576 22.6349C179.086 22.6566 179.592 22.5368 180.04 22.2883C180.488 22.0398 180.861 21.6721 181.118 21.2248C181.673 20.355 181.972 19.3431 181.981 18.3073C182.038 17.6855 181.967 17.0584 181.773 16.4657C181.579 15.873 181.266 15.3274 180.854 14.863V14.863Z" fill="black"/>
<path d="M198.88 26.1761C200.36 25.284 201.75 24.3412 203.05 23.368C204.26 22.4769 205.332 21.4073 206.23 20.1948C207.005 19.1694 207.433 17.9178 207.45 16.6262C207.458 15.8235 207.253 15.0333 206.857 14.3379C206.462 13.6426 205.889 13.0674 205.2 12.6724C203.314 11.5927 201.163 11.0827 199 11.2024C196.66 11.1517 194.338 11.626 192.2 12.5913C190.414 13.3778 188.845 14.5961 187.63 16.1396C186.615 17.3753 186.041 18.9218 186 20.5293C186 21.9486 186.42 22.8712 187.25 23.3172C188.019 23.738 188.877 23.964 189.75 23.9762C190.675 23.9536 191.59 23.7648 192.45 23.4186C193.509 22.9826 194.476 22.3461 195.3 21.5431L194.7 20.8335C194.037 21.4298 193.309 21.9469 192.53 22.3744C191.757 22.7502 190.907 22.9344 190.05 22.9117C189.268 22.9878 188.486 22.7715 187.85 22.3035C187.621 22.0629 187.445 21.776 187.333 21.4615C187.221 21.147 187.175 20.8121 187.2 20.4786C187.218 19.1334 187.675 17.8321 188.5 16.7783C189.384 15.5797 190.509 14.5846 191.8 13.8586C193.013 13.1336 194.392 12.7422 195.8 12.7231C196.326 12.6645 196.859 12.7291 197.357 12.912C197.855 13.0949 198.304 13.3911 198.671 13.778C199.039 14.1648 199.313 14.6319 199.474 15.1433C199.635 15.6547 199.678 16.1967 199.6 16.7276C199.57 18.4925 199.069 20.2161 198.15 21.7155C197.112 23.4807 195.87 25.1143 194.45 26.5817C192.959 28.1445 191.373 29.6107 189.7 30.9714C188.033 32.3231 186.493 33.5228 185.08 34.5704C183.66 35.5841 182.57 36.456 181.8 37.1048L181.55 38.1186C182.458 37.713 183.394 37.3742 184.35 37.1048C185.399 36.8665 186.478 36.7913 187.55 36.8818C189.304 36.9206 191.046 37.1933 192.73 37.6928C194.278 38.1622 195.885 38.4012 197.5 38.4025C199.164 38.481 200.82 38.1139 202.3 37.338C203.425 36.704 204.346 35.7533 204.95 34.6008C205.502 33.5692 205.8 32.4182 205.82 31.2451C205.842 30.3552 205.617 29.4769 205.17 28.7106C204.631 27.9027 203.889 27.2553 203.02 26.8351L202.52 27.4941C202.995 27.6901 203.406 28.0174 203.706 28.4386C204.007 28.8597 204.185 29.3579 204.22 29.8765C204.217 30.2797 204.09 30.6719 203.857 30.9988C203.624 31.3256 203.296 31.5711 202.92 31.7013C201.892 32.1383 200.784 32.3458 199.67 32.3096C198.61 32.3091 197.554 32.1901 196.52 31.9548L193.52 31.2451C192.678 31.0196 191.811 30.9004 190.94 30.8903C192.098 30.079 193.3 29.3344 194.54 28.66C195.947 27.8692 197.393 27.0413 198.88 26.1761Z" fill="#ce182a"/>
<path d="M233.4 11.1517H232.1L207.4 34.5197L207.1 35.5335H218.98L216.4 45.2152H224.4L226.97 35.5335H233.4L233.8 34.1141H227.35L233.4 11.1517ZM209.22 34.1648L222.82 21.3606L219.41 34.1648H209.22Z" fill="#ce182a"/>
<path d="M245.07 31.3972C244.291 30.7979 243.326 30.5028 242.35 30.5659C240.98 30.5241 239.649 31.0345 238.65 31.9852C238.156 32.4488 237.767 33.0147 237.508 33.6445C237.249 34.2742 237.127 34.953 237.15 35.6348C237.132 36.0779 237.212 36.5194 237.385 36.9266C237.558 37.3338 237.82 37.6962 238.15 37.9868C238.902 38.5866 239.845 38.886 240.8 38.8283C241.494 38.8424 242.183 38.715 242.827 38.4537C243.471 38.1925 244.057 37.8028 244.55 37.3076C245.03 36.8734 245.416 36.3427 245.682 35.7493C245.949 35.156 246.091 34.5128 246.1 33.8607C246.125 33.3976 246.045 32.9349 245.867 32.5079C245.688 32.081 245.416 31.701 245.07 31.3972V31.3972Z" fill="#ce182a"/>
</svg>
