<svg width="247" height="45" viewBox="0 0 247 45" fill="none" xmlns="http://www.w3.org/2000/svg">
<path d="M21.4077 12.5264C20.5046 12.5273 19.6128 12.7277 18.7961 13.1132C17.9794 13.4988 17.2579 14.06 16.6833 14.7568C15.9756 15.5776 15.3591 16.4728 14.8447 17.4267L20.0167 0C18.0955 0.614923 16.1317 1.08785 14.1412 1.41494C11.8321 1.77334 9.49932 1.95773 7.16256 1.96652L6.82678 2.97371C8.38559 2.97371 9.36887 3.22951 9.75258 3.7731C10.1363 4.31669 10.1683 5.0841 9.8485 6.17127L1.0552 35.7487C0.932126 36.2449 0.779973 36.7333 0.599543 37.2116C0.42287 37.6771 0.222767 38.1333 0 38.5786L0.719471 38.9143C2.05445 38.4186 3.42542 38.0258 4.82035 37.7393C6.11087 37.4431 7.45313 37.4568 8.73733 37.7792C9.16173 38.0526 9.61815 38.2728 10.0963 38.4347C10.8682 38.6976 11.6791 38.8273 12.4945 38.8184C14.3593 38.8443 16.2052 38.4423 17.8904 37.6433C19.4981 36.8621 20.9522 35.7979 22.1831 34.5017C23.443 33.1905 24.5187 31.7141 25.3807 30.113C26.2211 28.546 26.8808 26.8887 27.3472 25.1728C27.7798 23.6103 28.0055 21.9977 28.0186 20.3765C28.0186 17.8824 27.4857 15.9558 26.4199 14.5969C25.3007 13.2059 23.638 12.5264 21.4077 12.5264ZM18.5778 23.3902C18.2601 25.093 17.8111 26.7688 17.2349 28.4024C16.7037 29.9333 16.046 31.4173 15.2684 32.839C14.6415 34.0239 13.8322 35.103 12.8702 36.0365C12.1971 36.7427 11.2785 37.1633 10.3042 37.2116C10.0135 37.215 9.7236 37.1827 9.4408 37.1157C9.30762 37.0815 9.17679 37.0388 9.04911 36.9878L13.9574 20.3845C14.1732 19.9128 14.389 19.4572 14.6208 19.0335C15.0588 18.1614 15.6157 17.3543 16.2756 16.6353C16.4711 16.3922 16.7133 16.1906 16.9879 16.0423C17.2624 15.8941 17.5638 15.8021 17.8744 15.772C18.0539 15.7668 18.2311 15.814 18.3843 15.9076C18.5376 16.0013 18.6604 16.1375 18.7377 16.2996C18.9854 17.0072 19.0834 17.7585 19.0255 18.5059C19.0221 20.1441 18.8723 21.7787 18.5778 23.3902Z" fill="#12181C"/>
<path d="M56.4211 12.5264C55.1101 12.7503 53.7777 12.9181 52.4241 13.0301C51.0571 13.142 49.5063 13.2139 47.7476 13.2459L47.1481 15.2364C47.1288 14.6019 46.9107 13.9895 46.5246 13.4857C46.222 13.1567 45.8495 12.8998 45.4345 12.7338C45.0194 12.5677 44.5724 12.4969 44.1264 12.5264C42.6557 12.562 41.2188 12.9749 39.9536 13.7255C38.4209 14.5977 37.0232 15.6883 35.8047 16.9631C34.4467 18.3666 33.2484 19.9162 32.2315 21.5836C31.1693 23.3068 30.3159 25.1504 29.6894 27.0754C29.0811 28.9008 28.7655 30.811 28.7542 32.7351C28.6484 34.3476 29.1729 35.9382 30.217 37.1717C31.1923 38.2375 32.6872 38.7705 34.7016 38.7705C36.3245 38.7932 37.9124 38.2975 39.2342 37.3555C40.538 36.2908 41.5022 34.8682 42.008 33.2626C41.9678 33.6583 41.9544 34.0562 41.9681 34.4537C41.9707 35.3923 42.2486 36.3096 42.7674 37.0918C43.5988 38.2109 44.9898 38.7705 46.9403 38.7705C48.2843 38.7548 49.6062 38.4263 50.8013 37.8112C52.0963 37.1717 53.0956 35.8393 53.799 33.8142L54.9981 30.3129H54.0868L53.0796 32.9989C52.8109 33.9423 52.3171 34.8064 51.6407 35.5169C51.3318 35.7916 50.9474 35.967 50.5376 36.0205C50.34 36.0288 50.1455 35.9696 49.986 35.8527C49.9034 35.7722 49.8392 35.6748 49.7978 35.5672C49.7564 35.4596 49.7388 35.3442 49.7461 35.2292C49.7487 34.8122 49.8216 34.3987 49.962 34.0061L56.4211 12.5264ZM39.8737 35.1172C39.5866 35.3479 39.2342 35.4821 38.8664 35.5009C38.6766 35.5099 38.4891 35.4561 38.333 35.3477C38.1769 35.2393 38.0609 35.0824 38.0031 34.9014C37.8112 34.2726 37.7301 33.6154 37.7633 32.9589C37.7649 30.7719 38.0552 28.5948 38.6266 26.4838C39.1521 24.4782 39.8668 22.5269 40.761 20.6563C41.4577 19.1506 42.3442 17.7402 43.399 16.4595C44.3103 15.3936 45.1096 14.8607 45.7971 14.8607C45.9724 14.8521 46.1457 14.9015 46.2902 15.0012C46.4347 15.1009 46.5423 15.2453 46.5965 15.4123C46.7319 15.9176 46.7319 16.4497 46.5965 16.9551L43.1112 28.5702C42.7914 29.5615 42.4876 30.4408 42.1999 31.1682C41.8562 32.0722 41.4392 32.9464 40.9528 33.7823C40.6796 34.2908 40.3136 34.7436 39.8737 35.1172Z" fill="#12181C"/>
<path d="M81.1141 13.8694C80.6713 13.4073 80.1327 13.0476 79.5361 12.8156C78.9395 12.5836 78.2995 12.4849 77.6608 12.5264C76.4866 12.4996 75.3268 12.7895 74.3033 13.3658C73.1856 14.0963 72.2766 15.1044 71.6653 16.2916C71.3366 16.8701 71.0377 17.465 70.77 18.0742C70.842 17.434 70.842 16.7879 70.77 16.1477C70.6885 15.1747 70.2733 14.2598 69.5949 13.5577C69.1577 13.1812 68.6495 12.896 68.1003 12.7189C67.5512 12.5418 66.9722 12.4763 66.3973 12.5264C64.8736 12.4899 63.3701 12.8803 62.0567 13.6536C60.7071 14.5603 59.715 15.9084 59.2508 17.4667L57.9158 21.2079H58.8191L59.9223 18.2821C60.2043 17.4105 60.6432 16.5977 61.2173 15.8839C61.3839 15.6885 61.5893 15.5301 61.8206 15.4186C62.0518 15.3071 62.3037 15.245 62.5603 15.2364C62.7032 15.2156 62.8485 15.2517 62.9651 15.3369C63.0817 15.4221 63.1602 15.5496 63.1838 15.692C63.2308 16.2325 63.1655 16.7768 62.9919 17.2908L57.1404 38.075H65.63L69.1632 24.6053C69.7749 22.6947 70.5092 20.8255 71.3616 19.0095C71.9734 17.6444 72.7813 16.376 73.7597 15.2444C74.3378 14.5752 75.0824 14.0705 75.9181 13.7815C76.5495 13.5978 77.2031 13.501 77.8606 13.4937C77.9822 13.4928 78.1033 13.509 78.2204 13.5417L78.5401 13.6376C77.11 13.9025 75.813 14.6469 74.8629 15.748C73.8746 16.7818 73.3197 18.1548 73.3121 19.5851C73.2461 20.073 73.2936 20.5696 73.4511 21.0361C73.6085 21.5026 73.8716 21.9265 74.2198 22.2746C74.568 22.6228 74.9918 22.8858 75.4583 23.0433C75.9248 23.2007 76.4214 23.2483 76.9093 23.1823C77.6539 23.2015 78.3929 23.0493 79.0693 22.7374C79.7457 22.4255 80.3414 21.9624 80.8104 21.3837C81.8071 20.2147 82.3441 18.7229 82.3212 17.1869C82.3552 15.9678 81.9236 14.7816 81.1141 13.8694Z" fill="#12181C"/>
<path d="M106.247 17.1789C106.281 15.9636 105.853 14.7807 105.048 13.8694C104.605 13.4072 104.066 13.0476 103.47 12.8156C102.873 12.5836 102.233 12.4849 101.594 12.5264C100.42 12.4996 99.2605 12.7895 98.237 13.3658C97.1193 14.0963 96.2104 15.1044 95.5991 16.2916C95.2703 16.87 94.9714 17.465 94.7037 18.0742C94.7757 17.434 94.7757 16.7878 94.7037 16.1477C94.6222 15.1747 94.2071 14.2598 93.5286 13.5577C93.0911 13.1815 92.5829 12.8966 92.0339 12.7195C91.4848 12.5424 90.9058 12.4768 90.3311 12.5264C88.8073 12.4899 87.3038 12.8803 85.9904 13.6536C84.6408 14.5603 83.6488 15.9084 83.1845 17.4666L81.8415 21.2078H82.7528L83.856 18.282C84.1381 17.4105 84.5769 16.5977 85.151 15.8839C85.3176 15.6885 85.523 15.53 85.7542 15.4185C85.9855 15.3071 86.2374 15.245 86.494 15.2364C86.6366 15.2177 86.7809 15.2546 86.897 15.3394C87.013 15.4242 87.092 15.5505 87.1175 15.692C87.1645 16.2325 87.0992 16.7768 86.9256 17.2908L81.0741 38.075H89.5636L93.097 24.6052C93.7086 22.6946 94.4429 20.8255 95.2953 19.0095C95.9071 17.6444 96.715 16.376 97.6935 15.2444C98.2715 14.5751 99.0161 14.0705 99.8518 13.7815C100.483 13.5978 101.137 13.501 101.794 13.4937C101.916 13.4928 102.037 13.509 102.154 13.5417L102.466 13.6376C101.039 13.9042 99.7447 14.6484 98.7966 15.748C97.7908 16.7743 97.2183 18.1482 97.1978 19.585C97.1319 20.073 97.1794 20.5696 97.3368 21.0361C97.4943 21.5026 97.7573 21.9264 98.1055 22.2746C98.4537 22.6228 98.8775 22.8858 99.3441 23.0433C99.8106 23.2007 100.307 23.2483 100.795 23.1823C101.541 23.2021 102.281 23.0502 102.959 22.7383C103.637 22.4264 104.234 21.963 104.704 21.3837C105.714 20.2173 106.263 18.7218 106.247 17.1789Z" fill="#12181C"/>
<path d="M121.356 12.5264C118.763 12.4589 116.196 13.0532 113.897 14.2532C111.86 15.3554 110.084 16.8852 108.693 18.7377C107.349 20.5163 106.319 22.5115 105.648 24.6372C105.019 26.5663 104.687 28.5798 104.664 30.6087C104.664 33.2307 105.392 35.2451 106.847 36.652C108.302 38.059 110.42 38.7624 113.202 38.7624C115.794 38.83 118.361 38.2357 120.66 37.0358C122.698 35.9336 124.473 34.4037 125.864 32.5512C127.208 30.7726 128.238 28.7774 128.91 26.6517C129.539 24.7227 129.87 22.7091 129.893 20.6802C129.893 18.0582 129.166 16.0438 127.711 14.6368C126.256 13.2299 124.137 12.5264 121.356 12.5264ZM121.308 22.1911C120.909 24.1681 120.375 26.1152 119.709 28.0186C119.116 29.726 118.411 31.3923 117.598 33.0068C116.992 34.2504 116.252 35.4243 115.392 36.5082C114.673 37.3715 114.057 37.8032 113.546 37.8032C113.226 37.8032 112.994 37.6033 112.85 37.2036C112.673 36.5231 112.6 35.8196 112.634 35.1172C112.646 33.2155 112.847 31.3195 113.234 29.4575C113.635 27.4891 114.169 25.5501 114.833 23.654C115.433 21.8992 116.146 20.1849 116.967 18.5219C117.588 17.2232 118.343 15.9934 119.221 14.8527C119.957 13.9414 120.596 13.4857 121.14 13.4857C121.364 13.4857 121.555 13.6456 121.715 13.9653C121.931 14.7125 122.012 15.492 121.955 16.2676C121.94 18.2589 121.723 20.2435 121.308 22.1911Z" fill="#12181C"/>
<path d="M158.535 19.7689C158.956 18.5925 159.16 17.3491 159.135 16.0998C159.134 15.6058 159.029 15.1175 158.827 14.667C158.624 14.2165 158.329 13.8139 157.96 13.4857C156.943 12.7612 155.702 12.4213 154.458 12.5265C153.228 12.5163 152.009 12.7698 150.885 13.2699C149.611 13.9158 148.513 14.8624 147.687 16.0278C146.41 17.7955 145.338 19.7022 144.49 21.7114C144.13 22.5108 143.746 23.4222 143.355 24.3974L144.706 19.2414C144.992 18.2366 145.073 17.1846 144.945 16.1477C144.84 15.1514 144.37 14.2292 143.626 13.5577C142.875 12.8702 141.652 12.5265 139.957 12.5265C138.503 12.4636 137.069 12.8853 135.88 13.7255C134.703 14.7034 133.836 16.0035 133.386 17.4667L132.043 21.2079H132.955L134.058 18.2821C134.34 17.4105 134.779 16.5978 135.353 15.8839C135.519 15.6886 135.725 15.5301 135.956 15.4186C136.187 15.3071 136.439 15.245 136.696 15.2364C136.803 15.2261 136.912 15.2379 137.015 15.2708C137.118 15.3038 137.214 15.3574 137.295 15.4282C137.357 15.5185 137.399 15.6203 137.42 15.7276C137.44 15.8348 137.439 15.9452 137.415 16.0518C137.355 16.4593 137.259 16.8606 137.127 17.2509L131.276 38.035H139.765L139.829 37.7872V37.8911C140.533 35.2265 141.356 32.5805 142.299 29.9532C143.243 27.3258 144.218 24.9117 145.225 22.7107C146.038 20.8712 147.008 19.1059 148.127 17.4347C149.054 16.1077 149.838 15.4442 150.477 15.4442C150.571 15.4346 150.666 15.4581 150.745 15.5106C150.823 15.5631 150.882 15.6414 150.909 15.732C150.969 16.0166 150.969 16.3107 150.909 16.5954C150.835 17.0853 150.715 17.5671 150.549 18.0343L146.424 30.4568C145.948 31.7362 145.696 33.0885 145.681 34.4537C145.696 35.3531 145.974 36.2284 146.48 36.9718C147.312 38.123 148.75 38.6985 150.797 38.6985C152.141 38.6828 153.463 38.3544 154.658 37.7393C155.953 37.0998 156.952 35.7674 157.656 33.7423L158.855 30.241H157.944L156.936 32.9269C156.668 33.8704 156.174 34.7345 155.497 35.445C155.189 35.7209 154.804 35.8965 154.394 35.9486C154.128 35.9294 153.879 35.8093 153.699 35.6129C153.459 35.389 153.499 34.8295 153.819 33.9342L158.535 19.7689Z" fill="#12181C"/>
<path d="M180.854 14.6608C179.978 13.8449 178.903 13.2741 177.737 13.0061C176.458 12.6845 175.145 12.5234 173.827 12.5264C170.63 12.5264 168.232 13.2219 166.633 14.6129C165.874 15.239 165.265 16.027 164.85 16.9191C164.435 17.8113 164.225 18.785 164.235 19.7689C164.219 21.0441 164.515 22.3039 165.098 23.4381C165.674 24.5413 166.345 25.7164 167.113 26.9634C167.881 28.1561 168.554 29.4069 169.127 30.7046C169.625 31.7727 169.897 32.932 169.926 34.11C169.95 34.5983 169.873 35.0862 169.701 35.5439C169.529 36.0016 169.266 36.4194 168.927 36.772C168.604 37.0958 168.219 37.35 167.794 37.5192C167.369 37.6883 166.914 37.7686 166.457 37.7552C166.16 37.757 165.863 37.733 165.57 37.6833C165.292 37.6349 165.023 37.546 164.77 37.4195C164.994 36.9398 165.274 36.2683 165.61 35.405C165.953 34.5014 166.123 33.5416 166.113 32.5752C166.169 31.4851 165.865 30.4069 165.25 29.5055C164.997 29.1436 164.66 28.8494 164.267 28.6487C163.873 28.448 163.437 28.3469 162.996 28.3544C162.523 28.3405 162.054 28.4478 161.634 28.666C161.215 28.8843 160.858 29.2063 160.598 29.6015C159.989 30.4891 159.678 31.5473 159.71 32.6231C159.633 33.9732 160.09 35.2996 160.981 36.3163C161.886 37.2449 163.032 37.9012 164.291 38.2109C165.691 38.584 167.134 38.7695 168.583 38.7624C170.4 38.8191 172.208 38.4838 173.883 37.7792C175.174 37.2255 176.282 36.3195 177.081 35.1652C177.793 34.1011 178.169 32.848 178.16 31.5679C178.15 30.4266 177.93 29.2968 177.513 28.2345C176.888 26.7143 176.142 25.2467 175.282 23.8458L173.34 20.5363C172.744 19.5773 172.436 18.4676 172.453 17.3388C172.413 16.3362 172.728 15.3517 173.34 14.5569C173.664 14.2234 174.058 13.9647 174.493 13.799C174.928 13.6334 175.394 13.5646 175.858 13.5976C176.267 13.5738 176.676 13.6393 177.057 13.7895C176.618 14.3201 176.269 14.9197 176.026 15.5641C175.677 16.4326 175.506 17.3623 175.522 18.2981C175.47 19.326 175.751 20.3434 176.322 21.1999C176.573 21.5614 176.911 21.8541 177.305 22.051C177.699 22.2479 178.136 22.3428 178.576 22.327C179.086 22.3484 179.592 22.2302 180.04 21.985C180.488 21.7399 180.861 21.3773 181.118 20.936C181.673 20.078 181.972 19.08 181.981 18.0583C182.038 17.4449 181.967 16.8264 181.773 16.2417C181.579 15.6571 181.266 15.1189 180.854 14.6608Z" fill="#12181C"/>
<path d="M198.88 25.82C200.36 24.94 201.75 24.01 203.05 23.05C204.26 22.1711 205.332 21.116 206.23 19.92C207.005 18.9085 207.433 17.674 207.45 16.4C207.458 15.6082 207.253 14.8287 206.857 14.1428C206.462 13.4569 205.889 12.8896 205.2 12.5C203.314 11.435 201.163 10.9319 199 11.05C196.66 11 194.338 11.4678 192.2 12.42C190.414 13.1958 188.845 14.3975 187.63 15.92C186.615 17.1389 186.041 18.6644 186 20.25C186 21.65 186.42 22.56 187.25 23C188.019 23.415 188.876 23.638 189.75 23.65C190.675 23.6277 191.59 23.4415 192.45 23.1C193.509 22.6699 194.476 22.042 195.3 21.25L194.7 20.55C194.037 21.1382 193.309 21.6482 192.53 22.07C191.757 22.4407 190.907 22.6223 190.05 22.6C189.268 22.6751 188.486 22.4617 187.85 22C187.621 21.7627 187.445 21.4797 187.333 21.1695C187.221 20.8593 187.175 20.5289 187.2 20.2C187.218 18.8731 187.675 17.5894 188.5 16.55C189.384 15.3677 190.509 14.3861 191.8 13.67C193.013 12.9549 194.392 12.5688 195.8 12.55C196.326 12.4922 196.859 12.5559 197.357 12.7363C197.854 12.9167 198.304 13.2089 198.671 13.5905C199.038 13.9721 199.313 14.4328 199.474 14.9372C199.635 15.4417 199.678 15.9763 199.6 16.5C199.57 18.2408 199.069 19.941 198.15 21.42C197.112 23.1612 195.87 24.7726 194.45 26.22C192.959 27.7616 191.373 29.2078 189.7 30.55C188.033 31.8833 186.493 33.0667 185.08 34.1C183.66 35.1 182.57 35.96 181.8 36.6L181.55 37.6C182.458 37.1999 183.394 36.8657 184.35 36.6C185.399 36.3649 186.478 36.2907 187.55 36.38C189.304 36.4183 191.046 36.6872 192.73 37.18C194.278 37.6429 195.885 37.8787 197.5 37.88C199.164 37.9575 200.82 37.5953 202.3 36.83C203.425 36.2046 204.346 35.2669 204.95 34.13C205.501 33.1125 205.8 31.9772 205.82 30.82C205.842 29.9422 205.617 29.0759 205.17 28.32C204.631 27.5231 203.888 26.8845 203.02 26.47L202.52 27.12C202.995 27.3134 203.406 27.6362 203.706 28.0516C204.007 28.4671 204.185 28.9585 204.22 29.47C204.216 29.8677 204.089 30.2545 203.857 30.577C203.624 30.8994 203.296 31.1416 202.92 31.27C201.892 31.7011 200.784 31.9057 199.67 31.87C198.61 31.8695 197.554 31.7521 196.52 31.52L193.52 30.82C192.678 30.5976 191.811 30.48 190.94 30.47C192.098 29.6698 193.3 28.9353 194.54 28.27C195.947 27.49 197.393 26.6733 198.88 25.82Z" fill="#1399FB"/>
<path d="M233.4 11H232.1L207.4 34.05L207.1 35.05H218.98L216.4 44.6H224.4L226.97 35.05H233.4L233.8 33.65H227.35L233.4 11ZM209.22 33.7L222.82 21.07L219.41 33.7H209.22Z" fill="#1399FB"/>
<path d="M245.07 30.97C244.291 30.3788 243.326 30.0877 242.35 30.15C240.98 30.1088 239.649 30.6122 238.65 31.55C238.156 32.0073 237.767 32.5655 237.508 33.1867C237.249 33.8079 237.127 34.4774 237.15 35.15C237.132 35.587 237.212 36.0225 237.385 36.4242C237.558 36.8258 237.82 37.1833 238.15 37.47C238.902 38.0616 239.845 38.3569 240.8 38.3C241.494 38.3139 242.183 38.1882 242.827 37.9305C243.471 37.6729 244.057 37.2884 244.55 36.8C245.03 36.3717 245.416 35.8482 245.682 35.2629C245.949 34.6776 246.091 34.0432 246.1 33.4C246.125 32.9432 246.045 32.4868 245.867 32.0656C245.688 31.6445 245.416 31.2697 245.07 30.97Z" fill="#1399FB"/>
</svg>
