<svg width="14" height="16" viewBox="0 0 14 16" fill="none" xmlns="http://www.w3.org/2000/svg">
<path d="M11 5.00001C12.1046 5.00001 13 4.10457 13 3C13 1.89543 12.1046 1 11 1C9.89543 1 9 1.89543 9 3C9 4.10457 9.89543 5.00001 11 5.00001Z" stroke="#4E4E4E" stroke-width="1.5" stroke-linecap="round" stroke-linejoin="round"/>
<path d="M3 9.66688C4.10457 9.66688 5.00001 8.77144 5.00001 7.66687C5.00001 6.5623 4.10457 5.66687 3 5.66687C1.89543 5.66687 1 6.5623 1 7.66687C1 8.77144 1.89543 9.66688 3 9.66688Z" stroke="#4E4E4E" stroke-width="1.5" stroke-linecap="round" stroke-linejoin="round"/>
<path d="M11 14.3335C12.1046 14.3335 13 13.4381 13 12.3335C13 11.2289 12.1046 10.3335 11 10.3335C9.89543 10.3335 9 11.2289 9 12.3335C9 13.4381 9.89543 14.3335 11 14.3335Z" stroke="#4E4E4E" stroke-width="1.5" stroke-linecap="round" stroke-linejoin="round"/>
<path d="M4.72662 8.67334L9.27997 11.3267" stroke="#4E4E4E" stroke-width="1.5" stroke-linecap="round" stroke-linejoin="round"/>
<path d="M9.2733 4.00671L4.72662 6.66005" stroke="#4E4E4E" stroke-width="1.5" stroke-linecap="round" stroke-linejoin="round"/>
</svg>
