
<svg width="20" height="20" viewBox="0 0 20 20" fill="none" xmlns="http://www.w3.org/2000/svg">
<path d="M13.8417 16.6667C14.9584 16.675 16.0334 16.2583 16.8584 15.5083C19.5834 13.125 18.125 8.34166 14.5334 7.89166C13.25 0.108329 2.02502 3.05833 4.68335 10.4667" stroke="white" stroke-width="1.5" stroke-miterlimit="10" stroke-linecap="round" stroke-linejoin="round"/>
<path d="M6.06655 10.8084C5.62489 10.5834 5.13322 10.4667 4.64155 10.475C0.75822 10.75 0.766554 16.4 4.64155 16.675" stroke="white" stroke-width="1.5" stroke-miterlimit="10" stroke-linecap="round" stroke-linejoin="round"/>
<path d="M13.1833 8.24166C13.6167 8.025 14.0833 7.90833 14.5667 7.9" stroke="white" stroke-width="1.5" stroke-miterlimit="10" stroke-linecap="round" stroke-linejoin="round"/>
<path d="M8.30827 16.6667L6.6416 18.3333" stroke="white" stroke-width="1.5" stroke-miterlimit="10" stroke-linecap="round" stroke-linejoin="round"/>
<path d="M11.6418 16.6667L9.9751 18.3333" stroke="white" stroke-width="1.5" stroke-miterlimit="10" stroke-linecap="round" stroke-linejoin="round"/>
<path d="M11.6418 13.3333L9.9751 15" stroke="white" stroke-width="1.5" stroke-miterlimit="10" stroke-linecap="round" stroke-linejoin="round"/>
<path d="M8.30827 13.3333L6.6416 15" stroke="white" stroke-width="1.5" stroke-miterlimit="10" stroke-linecap="round" stroke-linejoin="round"/>
</svg>
